<svg width="24" height="24" viewBox="0 0 24 24" fill="none" xmlns="http://www.w3.org/2000/svg">
<path d="M18.3012 6.84771C18.3012 7.49176 17.7859 8.007 17.1419 8.007C16.4978 8.007 15.9826 7.49176 15.9826 6.84771C15.9826 6.20366 16.4978 5.68842 17.1419 5.68842C17.7859 5.68842 18.3012 6.20366 18.3012 6.84771ZM21.6502 12.0001C21.6502 14.6192 21.6395 14.952 21.5965 15.9825C21.5536 17.013 21.3819 17.7107 21.1457 18.3225C20.8988 18.9558 20.5661 19.4925 20.0294 20.0293C19.4927 20.566 18.9559 20.8987 18.3226 21.1456C17.7108 21.3818 17.0023 21.5428 15.9826 21.5964C14.9521 21.6394 14.6194 21.6501 12.0002 21.6501C9.38109 21.6501 9.04833 21.6394 8.01785 21.5964C6.98737 21.5535 6.28965 21.3818 5.67781 21.1456C5.04449 20.8987 4.50778 20.566 3.97108 20.0293C3.43437 19.4925 3.10161 18.9558 2.85472 18.3225C2.61857 17.7107 2.45756 17.0022 2.40389 15.9825C2.36095 14.952 2.35022 14.6192 2.35022 12.0001C2.35022 9.38097 2.36095 9.04821 2.40389 8.01773C2.44683 6.98725 2.61857 6.28953 2.85472 5.67769C3.10161 5.04437 3.43437 4.50766 3.97108 3.97096C4.50778 3.43425 5.04449 3.10149 5.67781 2.8546C6.28965 2.61845 6.99811 2.45744 8.01785 2.40377C9.04833 2.36083 9.38109 2.3501 12.0002 2.3501C14.6194 2.3501 14.9521 2.36083 15.9826 2.40377C17.0131 2.44671 17.7108 2.61845 18.3226 2.8546C18.9559 3.10149 19.4927 3.43425 20.0294 3.97096C20.5661 4.50766 20.8988 5.04437 21.1457 5.67769C21.3819 6.28953 21.5429 6.99799 21.5965 8.01773C21.6395 9.04821 21.6502 9.38097 21.6502 12.0001ZM19.9113 12.0001C19.9113 9.42391 19.9113 9.11262 19.8576 8.09287C19.8147 7.14827 19.6537 6.64376 19.5249 6.30027C19.3531 5.84943 19.1384 5.52741 18.8057 5.19465C18.4729 4.86189 18.1509 4.64721 17.7001 4.47546C17.3566 4.34665 16.8521 4.18564 15.9074 4.1427C14.8877 4.09977 14.5871 4.08903 12.0002 4.08903C9.41329 4.08903 9.11273 4.08903 8.09299 4.1427C7.14838 4.18564 6.64388 4.34665 6.30039 4.47546C5.84955 4.64721 5.52753 4.86189 5.19477 5.19465C4.86201 5.52741 4.64733 5.84943 4.47558 6.30027C4.34677 6.64376 4.18576 7.14827 4.14282 8.09287C4.09989 9.11262 4.08915 9.41317 4.08915 12.0001C4.08915 14.587 4.08915 14.8876 4.14282 15.9073C4.18576 16.8519 4.34677 17.3565 4.47558 17.6999C4.64733 18.1508 4.86201 18.4728 5.19477 18.8056C5.52753 19.1383 5.84955 19.353 6.30039 19.5248C6.64388 19.6536 7.14838 19.8146 8.09299 19.8575C9.11273 19.9004 9.41329 19.9112 12.0002 19.9112C14.5871 19.9112 14.8877 19.9112 15.9074 19.8575C16.8521 19.8146 17.3566 19.6536 17.7001 19.5248C18.1509 19.353 18.4729 19.1383 18.8057 18.8056C19.1384 18.4728 19.3531 18.1508 19.5249 17.6999C19.6537 17.3565 19.8147 16.8519 19.8576 15.9073C19.9006 14.8876 19.9113 14.587 19.9113 12.0001ZM16.9487 12.0001C16.9487 14.7373 14.7267 16.9593 11.9895 16.9593C9.25228 16.9593 7.03031 14.7373 7.03031 12.0001C7.03031 9.2629 9.25228 7.04093 11.9895 7.04093C14.7267 7.04093 16.9487 9.2629 16.9487 12.0001ZM15.2097 12.0001C15.2097 10.2182 13.7714 8.77986 11.9895 8.77986C10.2076 8.77986 8.76924 10.2182 8.76924 12.0001C8.76924 13.782 10.2076 15.2204 11.9895 15.2204C13.7714 15.2204 15.2097 13.782 15.2097 12.0001Z" fill="#171719"/>
</svg>
